HIERARCHY
ROOT Hips
{
	OFFSET -0.001795 -0.223333 0.028219
	CHANNELS 6 Xposition Yposition Zposition Zrotation Yrotation Xrotation 
	JOINT LeftUpLeg
	{
		OFFSET 0.069520 -0.091406 -0.006815
		CHANNELS 3 Zrotation Yrotation Xrotation
		JOINT LeftLeg
		{
			OFFSET 0.034277 -0.375199 -0.004496
			CHANNELS 3 Zrotation Yrotation Xrotation
			JOINT LeftFoot
			{
				OFFSET -0.013596 -0.397961 -0.043693
				CHANNELS 3 Zrotation Yrotation Xrotation
				JOINT LeftToe
				{
					OFFSET 0.026358 -0.055791 0.119288
					CHANNELS 3 Zrotation Yrotation Xrotation
					End Site
					{
						OFFSET 0.000000 0.000000 0.000000
					}
				}
			}
		}
	}
	JOINT RightUpLeg
	{
		OFFSET -0.067670 -0.090522 -0.004320
		CHANNELS 3 Zrotation Yrotation Xrotation
		JOINT RightLeg
		{
			OFFSET -0.038290 -0.382569 -0.008850
			CHANNELS 3 Zrotation Yrotation Xrotation
			JOINT RightFoot
			{
				OFFSET 0.015774 -0.398415 -0.042312
				CHANNELS 3 Zrotation Yrotation Xrotation
				JOINT RightToe
				{
					OFFSET -0.025372 -0.048144 0.123348
					CHANNELS 3 Zrotation Yrotation Xrotation
					End Site
					{
						OFFSET 0.000000 0.000000 0.000000
					}
				}
			}
		}
	}
	JOINT Spine
	{
		OFFSET -0.002533 0.108963 -0.026696
		CHANNELS 3 Zrotation Yrotation Xrotation
		JOINT Spine1
		{
			OFFSET 0.005487 0.135180 0.001092
			CHANNELS 3 Zrotation Yrotation Xrotation
			JOINT Spine2
			{
				OFFSET 0.001457 0.052922 0.025425
				CHANNELS 3 Zrotation Yrotation Xrotation
				JOINT Neck
				{
					OFFSET -0.002778 0.213870 -0.042857
					CHANNELS 3 Zrotation Yrotation Xrotation
					JOINT Head
					{
						OFFSET 0.005152 0.064970 0.051349
						CHANNELS 3 Zrotation Yrotation Xrotation
						End Site
						{
							OFFSET 0.000000 0.000000 0.000000
						}
					}
				}
				JOINT LeftShoulder
				{
					OFFSET 0.078845 0.121749 -0.034090
					CHANNELS 3 Zrotation Yrotation Xrotation
					JOINT LeftArm
					{
						OFFSET 0.090977 0.030469 -0.008868
						CHANNELS 3 Zrotation Yrotation Xrotation
						JOINT LeftForeArm
						{
							OFFSET 0.259612 -0.012772 -0.027456
							CHANNELS 3 Zrotation Yrotation Xrotation
							JOINT LeftHand
							{
								OFFSET 0.249234 0.008986 -0.001171
								CHANNELS 3 Zrotation Yrotation Xrotation
								End Site
								{
									OFFSET 0.000000 0.000000 0.000000
								}
							}
						}
					}
				}
				JOINT RightShoulder
				{
					OFFSET -0.081759 0.118833 -0.038615
					CHANNELS 3 Zrotation Yrotation Xrotation
					JOINT RightArm
					{
						OFFSET -0.096012 0.032551 -0.009143
						CHANNELS 3 Zrotation Yrotation Xrotation
						JOINT RightForeArm
						{
							OFFSET -0.253742 -0.013329 -0.021401
							CHANNELS 3 Zrotation Yrotation Xrotation
							JOINT RightHand
							{
								OFFSET -0.255298 0.007772 -0.005559
								CHANNELS 3 Zrotation Yrotation Xrotation
								End Site
								{
									OFFSET 0.000000 0.000000 0.000000
								}
							}
						}
					}
				}
			}
		}
	}
}
MOTION
Frames: 10
Frame Time: 0.050000
0.000000 0.922454 0.000000 -1.569450 -3.804567 -4.025623 -1.547695 -0.939374 -9.036233 -2.821333 0.359297 23.122594 2.585460 4.208142 -3.934253 0.000000 0.000000 0.000000 -1.528784 1.600872 -17.082801 1.789685 2.040189 47.815717 -2.356701 -5.733339 -0.517469 0.000000 0.000000 0.000000 5.122591 -1.099923 13.800330 -5.714012 2.005977 -22.398636 -2.046050 6.139548 28.475208 10.818682 -3.548618 -29.473009 0.000000 0.000000 0.000000 -16.876951 -11.647022 4.277506 -50.085921 -7.459590 -5.209345 -33.009710 -64.057186 24.590221 0.000000 0.000000 0.000000 22.882986 0.427480 0.178946 58.902054 9.050535 -4.199840 27.103603 59.374565 20.931256 0.000000 0.000000 0.000000 
-0.000022 0.919198 0.001269 -1.556518 -4.258563 -4.506823 -0.877965 -0.835744 -8.519891 -4.197753 0.881185 24.263280 2.572300 2.991824 -7.218794 0.000000 0.000000 0.000000 -0.972707 1.739803 -17.629568 1.869643 2.353763 51.156961 -2.465933 -7.007529 2.071841 0.000000 0.000000 0.000000 5.635141 -1.137873 13.774185 -6.646214 2.245411 -22.564430 -2.134199 6.124219 29.691701 10.630795 -3.499136 -29.701306 0.000000 0.000000 0.000000 -16.563629 -12.096795 4.626062 -50.746068 -8.285765 -5.098240 -32.141904 -64.630411 24.538509 0.000000 0.000000 0.000000 23.166682 -0.028449 -0.099341 59.754234 8.164261 -4.853358 31.554562 59.406077 23.889984 0.000000 0.000000 0.000000 
-0.000028 0.915904 0.002607 -1.110971 -4.297795 -4.849889 -1.769250 -0.920977 -8.636376 -3.534356 0.682308 25.384034 2.741768 2.817100 -8.759059 0.000000 0.000000 0.000000 -1.116438 1.707431 -17.508812 1.956172 2.392909 52.041851 -3.045049 -7.776990 0.361070 0.000000 0.000000 0.000000 6.118201 -1.158667 13.501201 -7.614734 2.544853 -21.712203 -2.047966 5.913206 29.739203 9.936884 -3.291496 -29.003385 0.000000 0.000000 0.000000 -17.838376 -12.834870 5.096984 -48.865929 -9.003233 -4.667253 -29.194738 -64.153677 22.307213 0.000000 0.000000 0.000000 24.830800 0.180756 -0.095060 57.862671 8.265466 -4.810137 30.406567 58.290188 22.421940 0.000000 0.000000 0.000000 
-0.000001 0.915401 0.003917 -0.753707 -4.896871 -5.700991 -2.725806 -0.942618 -8.077673 -3.013658 0.573159 26.279097 2.449461 2.411937 -8.100824 0.000000 0.000000 0.000000 -1.163712 1.693290 -17.324788 1.899509 2.767429 53.760392 -3.037928 -8.074336 1.267482 0.000000 0.000000 0.000000 6.315094 -1.175106 13.802382 -7.853530 2.608660 -21.756969 -2.481634 6.412235 30.707959 9.912926 -3.368042 -28.537812 0.000000 0.000000 0.000000 -17.736924 -12.964217 5.166640 -49.078323 -8.748588 -4.878677 -27.039665 -65.335894 21.419049 0.000000 0.000000 0.000000 25.401353 -0.243743 -0.289198 57.730106 8.308744 -4.931337 33.688663 58.764443 24.827684 0.000000 0.000000 0.000000 
0.000048 0.915282 0.005057 -0.586745 -5.598081 -5.988589 -2.953820 -0.982310 -8.246663 -3.302528 0.771605 26.998321 2.521431 2.768016 -7.877923 0.000000 0.000000 0.000000 -0.970602 1.698215 -17.007661 2.135069 2.871680 54.030923 -3.651322 -9.732377 1.915973 0.000000 0.000000 0.000000 6.087936 -1.165313 14.244048 -7.679909 2.556742 -21.651676 -2.426674 6.664723 30.657390 10.083642 -3.633969 -27.791122 0.000000 0.000000 0.000000 -18.146443 -13.262402 5.390314 -49.033797 -8.506211 -4.977035 -25.430655 -65.531052 20.472773 0.000000 0.000000 0.000000 25.715286 -0.127888 -0.306115 57.543485 7.995226 -5.068733 33.659914 59.134550 24.912561 0.000000 0.000000 0.000000 
0.000100 0.916609 0.005947 -0.682269 -5.655587 -6.036759 -3.027930 -0.984987 -8.216620 -3.281030 0.765342 26.886336 2.440738 2.769545 -7.355023 0.000000 0.000000 0.000000 -0.941780 1.747790 -17.406677 2.638421 2.629906 54.855998 -3.678284 -9.933185 2.375253 0.000000 0.000000 0.000000 6.382743 -1.229820 14.658562 -7.715050 2.555122 -21.934213 -2.621838 6.366257 30.799968 9.912607 -3.614826 -27.646132 0.000000 0.000000 0.000000 -17.929506 -12.964926 5.314836 -49.170779 -8.307950 -5.104978 -26.732668 -65.139116 21.295366 0.000000 0.000000 0.000000 25.925765 0.011287 -0.334922 57.653136 7.733941 -5.193743 33.607823 59.196865 24.832009 0.000000 0.000000 0.000000 
0.000133 0.918241 0.006528 -0.668938 -6.041886 -5.832496 -3.052093 -0.990577 -8.260617 -3.426483 0.845214 26.386517 2.532303 3.250700 -6.796915 0.000000 0.000000 0.000000 -0.854460 1.849787 -18.125672 3.262563 2.406490 55.636842 -3.747539 -10.386605 3.367020 0.000000 0.000000 0.000000 6.454673 -1.254021 14.900172 -7.626166 2.514798 -22.015002 -2.679311 6.102602 30.753043 9.949010 -3.743766 -27.535105 0.000000 0.000000 0.000000 -17.745347 -12.471817 5.184369 -49.111839 -7.598042 -5.409475 -29.268471 -65.215140 23.166248 0.000000 0.000000 0.000000 26.048965 -0.260594 -0.696395 57.648714 7.523542 -5.256896 35.003347 59.709319 25.832897 0.000000 0.000000 0.000000 
0.000090 0.919121 0.006992 -0.743716 -6.270411 -5.423024 -2.798758 -1.020425 -8.746247 -3.453273 0.886392 26.646998 2.618435 3.442365 -6.919078 0.000000 0.000000 0.000000 -0.740554 1.989071 -19.133913 3.839807 2.147199 56.412829 -3.821719 -10.780892 4.168325 0.000000 0.000000 0.000000 6.588664 -1.278393 14.966909 -7.392654 2.442324 -21.980635 -2.904709 5.829224 30.778504 9.555057 -3.584939 -27.496076 0.000000 0.000000 0.000000 -17.509541 -11.891173 4.987442 -48.697297 -7.131504 -5.582972 -33.029859 -65.413756 25.921632 0.000000 0.000000 0.000000 25.974945 -0.395396 -0.933066 57.680142 7.369647 -5.298172 36.122348 60.399239 26.791233 0.000000 0.000000 0.000000 
0.000057 0.918922 0.007349 -0.577478 -6.620269 -5.212747 -2.862365 -1.070953 -9.173082 -3.649356 1.003640 26.793949 2.799437 3.965052 -6.812431 0.000000 0.000000 0.000000 -0.693301 2.112933 -20.034498 4.157904 2.119719 57.321950 -3.748568 -10.764625 4.660204 0.000000 0.000000 0.000000 6.571855 -1.293203 15.234315 -7.473946 2.456470 -21.973743 -2.943867 5.693390 30.766113 9.261969 -3.435461 -27.727011 0.000000 0.000000 0.000000 -17.068546 -11.612985 4.917516 -48.313268 -6.714769 -5.726914 -35.469773 -65.932686 27.948680 0.000000 0.000000 0.000000 25.832520 -0.404454 -1.063812 57.561986 7.542467 -5.180926 36.433488 60.929175 27.156638 0.000000 0.000000 0.000000 
0.000055 0.917461 0.007697 -0.412834 -6.948084 -5.123346 -3.153690 -1.149116 -9.655475 -3.694940 1.094139 27.658927 3.111402 4.649066 -7.193848 0.000000 0.000000 0.000000 -0.670372 2.202673 -20.659903 4.203856 2.246689 57.860784 -3.870300 -10.994036 4.486049 0.000000 0.000000 0.000000 6.663360 -1.323890 15.571041 -7.616153 2.486353 -22.043661 -3.178992 5.752902 31.050640 8.983401 -3.222476 -28.251541 0.000000 0.000000 0.000000 -16.785328 -11.213926 4.753825 -47.711975 -6.724954 -5.702729 -38.066954 -66.560338 30.159016 0.000000 0.000000 0.000000 25.745132 -0.544204 -1.187280 57.500024 7.767751 -5.094987 37.080395 61.209330 27.725677 0.000000 0.000000 0.000000 
